<svg width="64" height="64" viewBox="0 0 64 64" fill="none" xmlns="http://www.w3.org/2000/svg">
<rect width="64" height="64" rx="10" fill="#F3F4F6"/>
<path fill-rule="evenodd" clip-rule="evenodd" d="M62.6667 30.916C62.6667 26.9128 57.6358 23.121 49.9192 20.7653C51.7014 12.931 50.9066 6.69996 47.421 4.70327C46.6163 4.23606 45.6782 4.01475 44.6513 4.01475V6.76389C45.2191 6.76389 45.6782 6.87701 46.0633 7.08356C47.7469 8.04256 48.4726 11.7015 47.9048 16.408C47.7666 17.5637 47.5444 18.7834 47.2729 20.0276C44.8488 19.4375 42.2025 18.9801 39.423 18.685C37.7542 16.408 36.0213 14.3375 34.2785 12.5277C38.3072 8.79009 42.089 6.74914 44.6612 6.74914V4C41.2595 4 36.8113 6.41472 32.3086 10.6048C27.806 6.43931 23.3577 4.04918 19.9561 4.04918V6.79832C22.5135 6.79832 26.3101 8.82943 30.3437 12.5376C28.6108 14.3474 26.8828 16.4031 25.2388 18.685C22.4444 18.9801 19.7981 19.4375 17.374 20.0375C17.0877 18.808 16.8803 17.6129 16.7322 16.467C16.1496 11.7605 16.8704 8.10158 18.5392 7.12782C18.9095 6.90651 19.3933 6.80815 19.961 6.80815V4.06393C18.9243 4.06393 17.9813 4.28524 17.1667 4.75245C13.691 6.74914 12.9109 12.9704 14.708 20.7801C7.00618 23.1407 2 26.9226 2 30.916C2 34.9192 7.03087 38.7109 14.7475 41.0666C12.9652 48.901 13.7601 55.132 17.2457 57.1287C18.0504 57.5959 18.9884 57.8172 20.0302 57.8172C23.4318 57.8172 27.8801 55.4025 32.3827 51.2124C36.8853 55.3779 41.3336 57.768 44.7352 57.768C45.772 57.768 46.715 57.5467 47.5296 57.0795C51.0053 55.0828 51.7854 48.8616 49.9883 41.0519C57.6605 38.7011 62.6667 34.9044 62.6667 30.916ZM37.9715 30.916C37.9715 27.8078 35.4437 25.2849 32.3185 25.2849C29.1983 25.2849 26.6656 27.8029 26.6656 30.916C26.6656 34.029 29.1934 36.547 32.3185 36.547C35.4437 36.5421 37.9715 34.0241 37.9715 30.916ZM46.5669 22.6981C46.1077 24.2866 45.54 25.9243 44.8982 27.5619C44.3896 26.5783 43.8614 25.5898 43.2788 24.6062C42.711 23.6227 42.1038 22.6587 41.4965 21.7243C43.2541 21.985 44.9475 22.3046 46.5669 22.6981ZM40.9041 35.8192C39.9414 37.4815 38.949 39.0601 37.9221 40.5257C36.0806 40.688 34.2144 40.7716 32.3333 40.7716C30.4671 40.7716 28.6009 40.683 26.7693 40.5355C25.7423 39.07 24.7401 37.506 23.7774 35.8536C22.8394 34.2405 21.9852 32.6028 21.2052 30.9504C21.9704 29.298 22.8394 27.6505 23.7626 26.0374C24.7253 24.3751 25.7177 22.7964 26.7446 21.3309C28.5861 21.1686 30.4523 21.085 32.3333 21.085C34.1995 21.085 36.0658 21.1735 37.8974 21.321C38.9243 22.7866 39.9265 24.3505 40.8893 26.0029C41.8273 27.616 42.6814 29.2537 43.4615 30.9061C42.6814 32.5537 41.8322 34.2012 40.9041 35.8192ZM44.8982 34.2159C45.5647 35.8684 46.1324 37.5159 46.6064 39.1191C44.987 39.5126 43.2788 39.847 41.5113 40.1027C42.1186 39.1536 42.7209 38.1798 43.2936 37.1815C43.8564 36.1979 44.3896 35.1995 44.8982 34.2159ZM32.358 47.3567C31.2077 46.1764 30.0573 44.8584 28.9218 43.4174C30.0327 43.4666 31.1731 43.506 32.3235 43.506C33.4837 43.506 34.634 43.4814 35.7597 43.4174C34.6439 44.8584 33.4935 46.1764 32.358 47.3567ZM23.1603 40.1027C21.4027 39.8421 19.7093 39.5224 18.0899 39.129C18.549 37.5405 19.1168 35.9028 19.7586 34.2651C20.2671 35.2487 20.7954 36.2372 21.378 37.2208C21.9606 38.2093 22.553 39.1683 23.1603 40.1027ZM32.2938 14.4703C33.4442 15.6506 34.5945 16.9687 35.73 18.4096C34.6192 18.3604 33.4787 18.3211 32.3284 18.3211C31.1682 18.3211 30.0178 18.3457 28.8922 18.4096C30.008 16.9687 31.1583 15.6506 32.2938 14.4703ZM23.1455 21.7243C22.5382 22.6735 21.9359 23.6472 21.3632 24.6456C20.7954 25.6292 20.2622 26.6177 19.7537 27.6013C19.0872 25.9488 18.5194 24.3013 18.0455 22.6981C19.6698 22.3145 21.378 21.985 23.1455 21.7243ZM11.9531 37.147C7.57395 35.288 4.74501 32.8487 4.74501 30.916C4.74501 28.9832 7.57888 26.5292 11.9531 24.6849C13.0146 24.2276 14.1797 23.8243 15.3794 23.4407C16.0854 25.8554 17.0136 28.3685 18.164 30.9406C17.0284 33.5028 16.1101 36.0011 15.4189 38.406C14.1946 38.0224 13.0294 37.6044 11.9531 37.147ZM18.6083 54.7484C16.9247 53.7894 16.199 50.1304 16.7668 45.424C16.905 44.2682 17.1272 43.0486 17.3987 41.8043C19.8228 42.3945 22.4691 42.8519 25.2486 43.1469C26.9174 45.424 28.6503 47.4944 30.3931 49.3042C26.3595 53.037 22.5777 55.0828 20.0055 55.0828C19.4476 55.0681 18.9786 54.9599 18.6083 54.7484ZM47.9394 45.3649C48.522 50.0714 47.8012 53.7304 46.1324 54.7041C45.7621 54.9254 45.2783 55.0238 44.7106 55.0238C42.1532 55.0238 38.3566 52.9927 34.323 49.2846C36.0559 47.4747 37.7839 45.419 39.4279 43.1371C42.2223 42.842 44.8685 42.3847 47.2926 41.7798C47.579 43.024 47.8012 44.2191 47.9394 45.3649ZM52.6987 37.147C51.6373 37.6044 50.4721 38.0077 49.2724 38.3913C48.5664 35.9766 47.6382 33.4635 46.4879 30.8914C47.6234 28.3291 48.5417 25.8308 49.2329 23.4259C50.4573 23.8095 51.6175 24.2276 52.7086 24.68C57.0878 26.539 59.9167 28.9783 59.9167 30.9111C59.9068 32.8487 57.0779 35.2979 52.6987 37.147Z" fill="#EC4899"/>
</svg>
